<svg width="304" height="360" viewBox="0 0 304 360" fill="none" xmlns="http://www.w3.org/2000/svg">
<path d="M37.22 0.779999H45.26V32.82H37.22V0.779999ZM42.92 13.92H52.52V20.4H42.92V13.92ZM27.02 33.84C38.42 33.84 45.8 38.1 45.8 45.12C45.8 52.2 38.42 56.4 27.02 56.4C15.56 56.4 8.18 52.2 8.18 45.12C8.18 38.1 15.56 33.84 27.02 33.84ZM27.02 40.2C19.94 40.2 16.04 41.76 16.04 45.12C16.04 48.42 19.94 50.04 27.02 50.04C34.04 50.04 37.94 48.42 37.94 45.12C37.94 41.76 34.04 40.2 27.02 40.2ZM3.32 23.58H7.94C20.18 23.58 26.24 23.28 32.9 21.84L33.68 28.2C26.9 29.7 20.48 29.94 7.94 29.94H3.32V23.58ZM3.32 4.5H28.16V10.86H11.24V27.9H3.32V4.5ZM94.7553 0.839998H102.795V41.34H94.7553V0.839998ZM65.7753 49.02H104.175V55.38H65.7753V49.02ZM65.7753 37.44H73.7553V52.32H65.7753V37.44ZM69.6153 3.84H76.2153V9.24C76.2153 20.1 71.2353 30.12 60.4353 33.9L56.4153 27.54C65.7153 24.36 69.6153 16.62 69.6153 9.24V3.84ZM71.2353 3.84H77.7753V9.24C77.7753 16.5 81.5553 23.64 90.6753 26.58L86.5953 32.94C76.0953 29.4 71.2353 19.98 71.2353 9.24V3.84ZM129.671 4.44C138.431 4.44 144.971 10.14 144.971 18.12C144.971 26.16 138.431 31.86 129.671 31.86C120.971 31.86 114.311 26.16 114.311 18.12C114.311 10.14 120.971 4.44 129.671 4.44ZM129.671 11.28C125.411 11.28 122.171 13.8 122.171 18.12C122.171 22.5 125.411 25.02 129.671 25.02C133.931 25.02 137.171 22.5 137.171 18.12C137.171 13.8 133.931 11.28 129.671 11.28ZM150.191 0.719996H158.171V56.46H150.191V0.719996ZM112.991 45.18L112.031 38.76C121.811 38.76 135.431 38.64 147.131 36.9L147.731 42.66C135.671 45.06 122.591 45.18 112.991 45.18ZM37.16 73.78H45.14V114.16H37.16V73.78ZM42.86 89.68H52.52V96.22H42.86V89.68ZM9.32 122.02H47.12V128.38H9.32V122.02ZM9.32 109.96H17.3V124.84H9.32V109.96ZM16.88 77.32C25.4 77.32 32 83.26 32 91.48C32 99.64 25.4 105.58 16.88 105.58C8.36 105.58 1.76 99.64 1.76 91.48C1.76 83.26 8.36 77.32 16.88 77.32ZM16.88 84.28C12.8 84.28 9.56 86.92 9.56 91.48C9.56 95.98 12.8 98.62 16.88 98.62C21.02 98.62 24.2 95.98 24.2 91.48C24.2 86.92 21.02 84.28 16.88 84.28ZM86.3553 88.12H99.3153V94.54H86.3553V88.12ZM95.1153 73.84H103.095V114.34H95.1153V73.84ZM66.4353 122.02H104.355V128.38H66.4353V122.02ZM66.4353 110.92H74.4153V125.8H66.4353V110.92ZM69.4353 81.1H75.9153V84.58C75.9153 95.02 70.9953 104.68 60.3153 108.22L56.2953 101.86C65.4753 98.86 69.4353 91.6 69.4353 84.58V81.1ZM71.1153 81.1H77.5353V84.58C77.5353 91.06 81.3153 97.96 90.0753 100.9L86.1753 107.14C75.8553 103.72 71.1153 94.48 71.1153 84.58V81.1ZM58.4553 77.56H88.3353V83.86H58.4553V77.56ZM136.931 74.56C149.591 74.56 157.031 77.92 157.031 84.04C157.031 90.16 149.591 93.52 136.931 93.52C124.211 93.52 116.831 90.16 116.831 84.04C116.831 77.92 124.211 74.56 136.931 74.56ZM136.931 80.38C128.891 80.38 125.111 81.58 125.111 84.04C125.111 86.62 128.891 87.7 136.931 87.7C144.971 87.7 148.751 86.62 148.751 84.04C148.751 81.58 144.971 80.38 136.931 80.38ZM111.791 96.1H162.011V102.4H111.791V96.1ZM117.551 105.52H155.951V119.8H125.471V124.72H117.611V114.28H148.091V111.46H117.551V105.52ZM117.611 122.98H157.391V128.98H117.611V122.98ZM198.873 76C207.333 76 213.453 80.86 213.453 87.88C213.453 94.78 207.333 99.76 198.873 99.76C190.473 99.76 184.353 94.78 184.353 87.88C184.353 80.86 190.473 76 198.873 76ZM198.873 82.48C194.853 82.48 191.973 84.4 191.973 87.88C191.973 91.3 194.853 93.22 198.873 93.22C202.953 93.22 205.833 91.3 205.833 87.88C205.833 84.4 202.953 82.48 198.873 82.48ZM195.153 105.28H203.133V127.66H195.153V105.28ZM219.453 73.78H227.373V129.34H219.453V73.78ZM182.013 109.48L181.053 103C190.773 103 204.513 102.88 216.273 101.08L216.813 106.9C204.753 109.3 191.613 109.42 182.013 109.48ZM271.828 73.84H279.808V115.36H271.828V73.84ZM277.528 90.76H287.188V97.3H277.528V90.76ZM236.068 79.6H268.768V85.84H236.068V79.6ZM252.448 87.82C260.428 87.82 266.068 92.2 266.068 98.56C266.068 104.92 260.428 109.24 252.448 109.24C244.408 109.24 238.768 104.92 238.768 98.56C238.768 92.2 244.408 87.82 252.448 87.82ZM252.448 93.88C248.908 93.88 246.448 95.56 246.448 98.56C246.448 101.56 248.908 103.18 252.448 103.18C255.988 103.18 258.448 101.56 258.448 98.56C258.448 95.56 255.988 93.88 252.448 93.88ZM248.428 73.72H256.408V82.66H248.428V73.72ZM243.988 122.02H281.788V128.38H243.988V122.02ZM243.988 112.24H251.968V124.78H243.988V112.24ZM29.78 158.6H42.68V165.02H29.78V158.6ZM14.12 150.2H20.54V156.2C20.54 167.54 15.8 177.2 5.3 181.04L1.1 174.8C10.28 171.74 14.12 164.06 14.12 156.2V150.2ZM15.86 150.2H22.22V156.26C22.22 163.4 25.88 170.54 34.64 173.54L30.38 179.66C20.42 176.06 15.86 166.76 15.86 156.26V150.2ZM39.92 146.84H47.9V187.82H39.92V146.84ZM11.12 195.02H49.1V201.38H11.12V195.02ZM11.12 183.68H19.16V198.56H11.12V183.68ZM58.4553 172.1H62.2953C70.3353 172.1 75.4953 171.98 81.6153 170.96L82.3353 177.32C75.9753 178.4 70.5753 178.58 62.2953 178.58H58.4553V172.1ZM58.4553 150.5H80.3553V156.86H66.1353V175.64H58.4553V150.5ZM63.8553 161.36H79.7553V167.36H63.8553V161.36ZM96.3753 146.78H103.935V180.68H96.3753V146.78ZM89.7153 160.4H98.5353V166.76H89.7153V160.4ZM84.4953 147.8H91.9353V180.32H84.4953V147.8ZM65.7753 183.08H103.935V202.34H96.0153V189.44H65.7753V183.08ZM122.878 191.034L122.643 193.378C122.459 195.253 122.104 197.121 121.578 198.982C121.067 200.857 120.527 202.554 119.959 204.074C119.405 205.594 118.957 206.787 118.616 207.653H112.736C112.949 206.815 113.24 205.643 113.609 204.138C113.979 202.646 114.327 200.97 114.653 199.109C114.98 197.249 115.186 195.352 115.271 193.42L115.378 191.034H122.878Z" fill="black"/>
<path d="M31.52 233.22H42.08V239.7H31.52V233.22ZM39.92 219.78H47.9V252.78H39.92V219.78ZM29.06 253.98C40.82 253.98 48.08 258 48.08 264.72C48.08 271.5 40.82 275.4 29.06 275.4C17.3 275.4 10.04 271.5 10.04 264.72C10.04 258 17.3 253.98 29.06 253.98ZM29.06 260.04C21.86 260.04 18.02 261.54 18.02 264.72C18.02 267.84 21.86 269.34 29.06 269.34C36.32 269.34 40.16 267.84 40.16 264.72C40.16 261.54 36.32 260.04 29.06 260.04ZM14.24 225.36H20.72V228.84C20.72 239.46 15.8 249.18 5.18 252.78L1.1 246.48C10.28 243.36 14.24 235.98 14.24 228.84V225.36ZM15.92 225.36H22.34V228.84C22.34 235.38 26.12 242.16 34.88 245.1L30.98 251.4C20.66 247.98 15.92 238.74 15.92 228.84V225.36ZM3.26 223.14H33.14V229.5H3.26V223.14ZM63.0153 220.74H70.8753V224.4H92.5353V220.74H100.455V239.34H63.0153V220.74ZM70.8753 230.22V233.46H92.5353V230.22H70.8753ZM56.5953 242.34H106.815V248.58H56.5953V242.34ZM62.3553 251.76H100.755V265.86H70.2753V270.9H62.4153V260.4H92.8953V257.58H62.3553V251.76ZM62.4153 269.04H102.195V274.98H62.4153V269.04ZM150.071 219.72H158.051V275.46H150.071V219.72ZM114.791 256.02H119.711C129.551 256.02 137.411 255.66 146.231 254.16L147.011 260.58C138.011 262.2 129.851 262.5 119.711 262.5H114.791V256.02ZM114.731 224.46H140.951V245.94H122.891V258.42H114.791V239.64H132.791V230.82H114.731V224.46Z" fill="#FE4956"/>
<path opacity="0.32" d="M15.488 313.784V313.016H2.288V311.408H17.456V313.784C17.456 316.52 17.456 319.328 16.688 323.36L14.744 323.12C15.488 319.28 15.488 316.448 15.488 313.784ZM12.32 326.144H19.736V327.752H0.272V326.144H5.048V319.016H6.992V326.144H10.376V319.016H12.32V326.144ZM32.0701 329.264C35.5501 329.264 37.4701 328.592 37.4701 327.296C37.4701 326.024 35.5501 325.328 32.0701 325.328C28.6141 325.328 26.6701 326.024 26.6701 327.296C26.6701 328.592 28.6141 329.264 32.0701 329.264ZM32.0701 323.864C36.7501 323.864 39.4381 325.064 39.4381 327.296C39.4381 329.552 36.7501 330.752 32.0701 330.752C27.3901 330.752 24.7021 329.552 24.7021 327.296C24.7021 325.064 27.3901 323.864 32.0701 323.864ZM33.0541 320.648H41.8141V322.232H22.3261V320.648H31.0861V318.536H24.8941V309.872H39.4141V311.408H26.8621V313.4H38.8381V314.888H26.8621V317H39.5341V318.536H33.0541V320.648ZM51.6523 311.12V314.984C51.6523 318.776 54.1003 322.688 57.1243 324.2L55.9003 325.76C53.6203 324.536 51.6763 322.016 50.6923 319.064C49.7563 322.208 47.7643 324.896 45.3403 326.192L44.1643 324.608C47.2603 323.024 49.7083 318.896 49.7083 314.984V311.12H51.6523ZM64.5403 317.984V319.616H60.9883V330.776H59.0203V309.272H60.9883V317.984H64.5403ZM81.6984 313.544V313.016H68.5704V311.408H83.6664V313.544C83.6664 316.208 83.6664 319.16 82.8504 323.504L80.8824 323.288C81.6984 319.16 81.6984 316.136 81.6984 313.544ZM76.0584 326.144H85.9944V327.752H66.5304V326.144H74.0904V318.44H76.0584V326.144ZM103.657 313.016V311.264H91.0325V309.872H105.601V314.36H93.0245V316.208H105.985V317.624H91.0805V313.016H103.657ZM92.9045 327.08V329.072H106.345V330.488H90.9605V325.712H103.729V323.912H90.9125V322.496H105.673V327.08H92.9045ZM88.5845 319.256H108.097V320.744H88.5845V319.256ZM126.677 321.008H129.605V316.064H126.677C126.797 316.832 126.869 317.624 126.869 318.536C126.869 319.448 126.797 320.24 126.677 321.008ZM122.261 324.224C123.989 324.224 125.069 322.04 125.069 318.536C125.069 315.056 123.989 312.872 122.261 312.872C120.557 312.872 119.453 315.056 119.453 318.536C119.453 322.04 120.557 324.224 122.261 324.224ZM129.605 314.456V309.728H131.477V329.72H129.605V322.64H126.269C125.501 324.8 124.133 326.048 122.261 326.048C119.477 326.048 117.677 323.168 117.677 318.536C117.677 313.928 119.477 311.048 122.261 311.048C124.133 311.048 125.525 312.296 126.269 314.456H129.605ZM133.829 309.248H135.701V330.776H133.829V309.248ZM148.419 318.944V315.392H142.323V318.944H148.419ZM150.339 310.616V320.528H140.379V310.616H142.323V313.856H148.419V310.616H150.339ZM149.355 329.216C152.523 329.216 154.467 328.304 154.467 326.768C154.467 325.232 152.523 324.344 149.355 324.344C146.139 324.344 144.219 325.232 144.219 326.768C144.219 328.304 146.139 329.216 149.355 329.216ZM149.355 322.76C153.723 322.76 156.435 324.224 156.435 326.768C156.435 329.312 153.723 330.776 149.355 330.776C144.963 330.776 142.251 329.312 142.251 326.768C142.251 324.224 144.963 322.76 149.355 322.76ZM156.195 314.672H159.387V316.304H156.195V322.208H154.227V309.248H156.195V314.672ZM167.881 324.344C169.849 324.344 171.265 322.952 171.265 321.032C171.265 319.088 169.849 317.696 167.881 317.696C165.937 317.696 164.521 319.088 164.521 321.032C164.521 322.952 165.937 324.344 167.881 324.344ZM167.881 316.064C170.953 316.064 173.137 318.128 173.137 321.032C173.137 323.96 170.953 325.976 167.881 325.976C164.857 325.976 162.673 323.96 162.673 321.032C162.673 318.128 164.857 316.064 167.881 316.064ZM168.841 309.512V312.704H174.145V314.288H161.449V312.704H166.873V309.512H168.841ZM181.681 318.104V319.76H178.153V330.776H176.185V309.272H178.153V318.104H181.681ZM198.839 313.544V313.016H185.711V311.408H200.807V313.544C200.807 316.208 200.807 319.16 199.991 323.504L198.023 323.288C198.839 319.16 198.839 316.136 198.839 313.544ZM193.199 326.144H203.135V327.752H183.671V326.144H191.231V318.44H193.199V326.144ZM209.294 326.614L209.158 327.534C209.061 328.182 208.913 328.875 208.714 329.614C208.521 330.352 208.32 331.048 208.109 331.702C207.899 332.355 207.726 332.875 207.589 333.261H206.055C206.129 332.898 206.226 332.418 206.345 331.821C206.464 331.224 206.584 330.557 206.703 329.818C206.828 329.085 206.93 328.335 207.01 327.568L207.112 326.614H209.294ZM221.914 313.472V323.84C224.794 323.816 226.834 323.696 229.186 323.192L229.354 324.824C226.786 325.376 224.602 325.472 221.386 325.472H219.97V311.864H227.986V313.472H221.914ZM235.594 309.248H237.49V330.776H235.594V319.496H232.546V329.696H230.698V309.728H232.546V317.888H235.594V309.248ZM248.72 314.552V316.208C248.72 319.784 251.072 323.288 254.24 324.704L253.16 326.216C250.712 325.088 248.72 322.76 247.76 319.928C246.848 322.928 244.856 325.424 242.408 326.624L241.304 325.112C244.472 323.6 246.776 319.928 246.776 316.208V314.552H241.904V312.968H246.752V309.632H248.72V312.968H253.496V314.552H248.72ZM257.048 309.224H259.016V330.824H257.048V319.496H252.392V317.888H257.048V309.224ZM269.67 324.344C271.638 324.344 273.054 322.952 273.054 321.032C273.054 319.088 271.638 317.696 269.67 317.696C267.726 317.696 266.31 319.088 266.31 321.032C266.31 322.952 267.726 324.344 269.67 324.344ZM269.67 316.064C272.742 316.064 274.926 318.128 274.926 321.032C274.926 323.96 272.742 325.976 269.67 325.976C266.646 325.976 264.462 323.96 264.462 321.032C264.462 318.128 266.646 316.064 269.67 316.064ZM270.63 309.512V312.704H275.934V314.288H263.238V312.704H268.662V309.512H270.63ZM283.47 318.104V319.76H279.942V330.776H277.974V309.272H279.942V318.104H283.47ZM286.708 311.576H296.788C296.788 317.792 293.932 323.264 286.78 326.768L285.724 325.16C291.508 322.4 294.388 318.272 294.796 313.16H286.708V311.576ZM301.132 309.248H303.1V330.776H301.132V309.248ZM7.328 340.888C5.216 340.888 3.728 342.016 3.728 343.696C3.728 345.376 5.216 346.504 7.328 346.504C9.416 346.504 10.904 345.376 10.904 343.696C10.904 342.016 9.416 340.888 7.328 340.888ZM7.328 348.112C4.112 348.112 1.832 346.312 1.832 343.696C1.832 341.056 4.112 339.256 7.328 339.256C10.52 339.256 12.8 341.056 12.8 343.696C12.8 346.312 10.52 348.112 7.328 348.112ZM14.408 349.168L14.576 350.632C12.536 350.992 10.448 351.232 8.408 351.352V359.104H6.44V351.472C4.304 351.568 2.264 351.592 0.488 351.592L0.224 349.936C4.232 349.936 9.68 349.888 14.408 349.168ZM15.968 338.272H17.936V359.8H15.968V338.272ZM35.1181 340.888V342.472H22.4221V340.888H27.7741V338.248H29.7421V340.888H35.1181ZM25.4941 347.656C25.4941 349.168 26.8141 350.128 28.7581 350.128C30.7021 350.128 32.0461 349.168 32.0461 347.656C32.0461 346.168 30.7021 345.208 28.7581 345.208C26.8141 345.208 25.4941 346.168 25.4941 347.656ZM33.9181 347.656C33.9181 350.08 31.8061 351.664 28.7581 351.664C25.7101 351.664 23.6221 350.08 23.6221 347.656C23.6221 345.256 25.7101 343.672 28.7581 343.672C31.8061 343.672 33.9181 345.256 33.9181 347.656ZM27.6301 353.128V357.688H40.0141V359.296H25.6621V353.128H27.6301ZM39.0541 345.352H42.2221V347.008H39.0541V354.4H37.0861V338.248H39.0541V345.352ZM58.8583 342.088V344.824C58.8583 348.472 61.4503 352.192 64.6183 353.536L63.5143 355.12C61.0183 353.968 58.9063 351.496 57.8743 348.544C56.8903 351.688 54.7783 354.4 52.3303 355.648L51.1783 354.064C54.2743 352.6 56.8903 348.544 56.8903 344.824V342.088H51.8983V340.456H63.9223V342.088H58.8583ZM66.8263 338.272H68.7943V359.776H66.8263V338.272ZM86.2404 348.376L85.2564 349.936C82.7844 349.048 80.8404 347.2 79.8804 344.824C78.9444 347.368 76.9764 349.36 74.4564 350.32L73.4484 348.76C76.6884 347.584 78.8724 344.584 78.8724 341.368V339.256H80.8404V341.368C80.8404 344.464 83.0484 347.272 86.2404 348.376ZM76.5204 353.896V352.312H90.9204V359.8H88.9524V353.896H76.5204ZM88.9524 338.272H90.9204V351.208H88.9524V338.272ZM105.055 340.096C101.527 340.096 99.5105 340.912 99.5105 342.352C99.5105 343.792 101.527 344.608 105.055 344.608C108.583 344.608 110.599 343.792 110.599 342.352C110.599 340.912 108.583 340.096 105.055 340.096ZM105.055 346.072C100.327 346.072 97.4945 344.776 97.4945 342.352C97.4945 339.928 100.327 338.608 105.055 338.608C109.783 338.608 112.615 339.928 112.615 342.352C112.615 344.776 109.783 346.072 105.055 346.072ZM99.6545 355.816V358H112.951V359.536H97.7345V354.376H110.359V352.456H97.6625V350.968H112.303V355.816H99.6545ZM95.3105 347.536H114.799V349.12H95.3105V347.536ZM131.315 352.792V347.104H126.803V352.792H131.315ZM131.315 345.544V340.288H133.163V354.376H124.931V340.288H126.803V345.544H131.315ZM140.579 338.248H142.451V359.776H140.579V348.376H137.675V358.72H135.827V338.728H137.675V346.768H140.579V338.248ZM155.961 339.976C152.433 339.976 150.417 340.792 150.417 342.232C150.417 343.672 152.433 344.488 155.961 344.488C159.489 344.488 161.505 343.672 161.505 342.232C161.505 340.792 159.489 339.976 155.961 339.976ZM155.961 345.952C151.233 345.952 148.401 344.656 148.401 342.232C148.401 339.808 151.233 338.488 155.961 338.488C160.713 338.488 163.521 339.808 163.521 342.232C163.521 344.656 160.713 345.952 155.961 345.952ZM165.681 348.952H156.945V350.968H163.209V355.816H150.561V358H163.857V359.536H148.641V354.376H161.265V352.456H148.593V350.968H154.977V348.952H146.241V347.368H165.681V348.952ZM193.597 346.456L192.781 348.04C189.445 347.464 186.205 345.592 184.813 343C183.469 345.616 180.229 347.464 176.869 348.04L176.077 346.456C179.989 345.88 183.781 343.288 183.781 340.216V339.016H185.845V340.216C185.845 343.216 189.685 345.88 193.597 346.456ZM194.533 350.368L194.557 352H185.749V359.8H183.781V352H175.093V350.368H194.533ZM221.561 338.272V350.56H219.593V338.272H221.561ZM209.993 341.152C207.857 341.152 206.321 342.568 206.321 344.536C206.321 346.528 207.857 347.92 209.993 347.92C212.129 347.92 213.713 346.528 213.713 344.536C213.713 342.568 212.129 341.152 209.993 341.152ZM209.993 349.552C206.753 349.552 204.401 347.512 204.401 344.536C204.401 341.56 206.753 339.52 209.993 339.52C213.257 339.52 215.633 341.56 215.633 344.536C215.633 347.512 213.257 349.552 209.993 349.552ZM219.161 351.496V352.648C219.161 354.88 220.745 357.088 223.481 358L222.497 359.488C220.385 358.72 218.897 357.232 218.177 355.432C217.505 357.184 216.185 358.816 214.193 359.68C212.129 358.864 210.833 357.304 210.185 355.504C209.417 357.232 207.953 358.72 205.937 359.488L204.953 358C207.665 357.04 209.273 354.712 209.273 352.648V351.496H211.169V352.648C211.169 354.544 212.153 356.584 214.145 357.76C216.209 356.488 217.241 354.328 217.241 352.648V351.496H219.161ZM244.335 344.968L243.615 346.552C240.279 346.024 237.087 344.344 235.719 341.944C234.375 344.344 231.159 346.024 227.799 346.552L227.079 344.968C230.943 344.488 234.711 342.184 234.711 339.448V338.488H236.727V339.448C236.727 342.112 240.519 344.488 244.335 344.968ZM240.951 357.904V355.168H230.367V357.904H240.951ZM240.951 353.656V351.136H242.895V359.488H228.423V351.136H230.367V353.656H240.951ZM225.951 348.064H245.439V349.648H225.951V348.064ZM251.365 340.336V352.528C254.605 352.528 257.941 352.24 261.517 351.52L261.733 353.2C257.989 353.968 254.605 354.208 251.173 354.208H249.397V340.336H251.365ZM263.725 338.248H265.693V359.752H263.725V338.248ZM273.011 341.944V352.768C276.827 352.768 279.587 352.6 282.707 352.048L282.923 353.68C279.635 354.304 276.803 354.448 272.747 354.448H271.043V340.312H281.051V341.944H273.011ZM290.243 346.744V348.376H286.691V359.824H284.723V338.248H286.691V346.744H290.243ZM294.244 358.136C293.824 358.136 293.463 357.986 293.162 357.685C292.861 357.384 292.71 357.023 292.71 356.602C292.71 356.182 292.861 355.821 293.162 355.52C293.463 355.219 293.824 355.068 294.244 355.068C294.665 355.068 295.026 355.219 295.327 355.52C295.628 355.821 295.778 356.182 295.778 356.602C295.778 356.881 295.707 357.136 295.565 357.369C295.429 357.602 295.244 357.79 295.011 357.932C294.784 358.068 294.528 358.136 294.244 358.136Z" fill="#242639"/>
</svg>
