<svg width="10" height="10" viewBox="0 0 40 40" fill="none" xmlns="http://www.w3.org/2000/svg">
<mask id="mask0_127_1994" style="mask-type:luminance" maskUnits="userSpaceOnUse" x="0" y="0" width="40" height="40">
<path d="M20 16C20.9193 16 21.8295 15.8189 22.6788 15.4672C23.5281 15.1154 24.2997 14.5998 24.9497 13.9497C25.5998 13.2997 26.1154 12.5281 26.4672 11.6788C26.8189 10.8295 27 9.91925 27 9C27 8.08075 26.8189 7.17049 26.4672 6.32122C26.1154 5.47194 25.5998 4.70026 24.9497 4.05025C24.2997 3.40024 23.5281 2.88463 22.6788 2.53284C21.8295 2.18106 20.9193 2 20 2C18.1435 2 16.363 2.7375 15.0503 4.05025C13.7375 5.36301 13 7.14348 13 9C13 10.8565 13.7375 12.637 15.0503 13.9497C16.363 15.2625 18.1435 16 20 16ZM2 36.8V38H38V36.8C38 32.32 38 30.08 37.128 28.368C36.361 26.8628 35.1372 25.639 33.632 24.872C31.92 24 29.68 24 25.2 24H14.8C10.32 24 8.08 24 6.368 24.872C4.86277 25.639 3.63898 26.8628 2.872 28.368C2 30.08 2 32.32 2 36.8Z" fill="white" stroke="white" stroke-width="4" stroke-linecap="round" stroke-linejoin="round"/>
</mask>
<g mask="url(#mask0_127_1994)">
<path d="M-4 -4H44V44H-4V-4Z" fill="#212336"/>
</g>
</svg>
