<svg width="28" height="28" viewBox="0 0 36 36" fill="none" xmlns="http://www.w3.org/2000/svg">
<path d="M14.7869 21.2126L34 1.99951M14.7869 21.2126L20.9002 33.4391C20.9768 33.6063 21.0999 33.748 21.2547 33.8473C21.4095 33.9467 21.5896 33.9995 21.7735 33.9995C21.9575 33.9995 22.1375 33.9467 22.2924 33.8473C22.4472 33.748 22.5702 33.6063 22.6468 33.4391L34 1.99951M14.7869 21.2126L2.56045 15.0993C2.39322 15.0227 2.25151 14.8997 2.15216 14.7448C2.05281 14.59 2 14.41 2 14.226C2 14.0421 2.05281 13.862 2.15216 13.7072C2.25151 13.5524 2.39322 13.4293 2.56045 13.3527L34 1.99951" stroke="#949494" stroke-width="3" stroke-linecap="round" stroke-linejoin="round"/>
</svg>
