<svg width="458" height="264" viewBox="0 0 458 264" fill="none" xmlns="http://www.w3.org/2000/svg">
<g filter="url(#filter0_d_0_1)">
<rect x="85" y="159" width="372.21" height="101.868" rx="13.06" fill="#73B0EF"/>
</g>
<path d="M198.084 196.896V183.599H203.174C204.135 183.599 204.934 183.75 205.57 184.053C206.211 184.352 206.689 184.761 207.005 185.28C207.325 185.8 207.485 186.388 207.485 187.046C207.485 187.587 207.381 188.051 207.174 188.436C206.966 188.817 206.687 189.126 206.336 189.364C205.985 189.602 205.594 189.773 205.161 189.877V190.007C205.633 190.033 206.085 190.178 206.518 190.442C206.955 190.702 207.312 191.07 207.589 191.546C207.866 192.022 208.005 192.598 208.005 193.273C208.005 193.961 207.838 194.58 207.505 195.13C207.172 195.675 206.669 196.106 205.998 196.422C205.328 196.738 204.483 196.896 203.466 196.896H198.084ZM200.493 194.883H203.083C203.958 194.883 204.587 194.717 204.973 194.383C205.362 194.046 205.557 193.613 205.557 193.085C205.557 192.691 205.46 192.336 205.265 192.02C205.07 191.7 204.793 191.448 204.434 191.267C204.074 191.081 203.646 190.987 203.148 190.987H200.493V194.883ZM200.493 189.254H202.875C203.291 189.254 203.665 189.178 203.999 189.027C204.332 188.871 204.594 188.652 204.784 188.371C204.979 188.085 205.076 187.748 205.076 187.358C205.076 186.843 204.895 186.419 204.531 186.085C204.172 185.752 203.637 185.585 202.927 185.585H200.493V189.254ZM214.987 182.744C217.62 182.744 219.631 184.481 219.631 186.895C219.631 189.326 217.62 191.045 214.987 191.045C212.354 191.045 210.361 189.326 210.361 186.895C210.361 184.481 212.354 182.744 214.987 182.744ZM214.987 184.81C213.689 184.81 212.702 185.578 212.702 186.895C212.702 188.211 213.689 188.979 214.987 188.979C216.285 188.979 217.273 188.211 217.273 186.895C217.273 185.578 216.285 184.81 214.987 184.81ZM221.204 181.611H223.617V198.505H221.204V181.611ZM209.959 195.086L209.648 193.129C212.61 193.129 216.742 193.111 220.289 192.581L220.436 194.318C216.815 195.049 212.866 195.086 209.959 195.086ZM239.853 191.118L237.494 190.917C237.878 188.522 237.933 186.712 237.933 185.213H231.643V183.293H240.31V184.664C240.31 186.291 240.31 188.339 239.853 191.118ZM236.178 188.12V193.02C237.805 192.965 239.451 192.855 240.986 192.672L241.114 194.409C237.695 194.994 233.929 195.068 231.003 195.086L230.784 193.111C231.716 193.111 232.74 193.111 233.801 193.093V188.12H236.178ZM246.435 188.394V190.405H244.168V198.45H241.754V181.611H244.168V188.394H246.435ZM261.719 181.647V190.131H259.305V181.647H261.719ZM258.08 188.047L256.929 189.93C255.009 189.363 253.711 188.193 252.961 186.73C252.193 188.321 250.822 189.601 248.847 190.204L247.677 188.321C250.474 187.461 251.699 185.341 251.699 183.293V182.031H254.149V183.293C254.149 185.286 255.356 187.242 258.08 188.047ZM252.924 196.475H262.158V198.34H250.529V193.715H259.342V192.727H250.511V190.881H261.737V195.433H252.924V196.475ZM276.107 181.611H278.521V198.505H276.107V181.611ZM269.47 182.799C272.011 182.799 273.895 185.103 273.895 188.796C273.895 192.508 272.011 194.83 269.47 194.83C266.929 194.83 265.045 192.508 265.045 188.796C265.045 185.103 266.929 182.799 269.47 182.799ZM269.47 184.975C268.227 184.975 267.367 186.31 267.367 188.796C267.367 191.301 268.227 192.636 269.47 192.636C270.713 192.636 271.573 191.301 271.573 188.796C271.573 186.31 270.713 184.975 269.47 184.975ZM289.125 185.048V192.471C291.538 192.453 293.275 192.325 295.195 191.996L295.433 193.952C293.165 194.373 291.154 194.446 288.083 194.446H286.711V183.128H294.336V185.048H289.125ZM297.645 181.629H300.059V198.523H297.645V189.381H293.531V187.443H297.645V181.629ZM308.523 188.065L318.561 187.736C318.598 186.803 318.598 185.926 318.598 185.066V185.03H308.999V183.11H320.975V185.066C320.975 187.516 320.975 189.838 320.189 193.495L317.812 193.257C318.141 191.886 318.324 190.661 318.433 189.528L308.816 190.021L308.523 188.065ZM307.298 194.501H322.511V196.475H307.298V194.501ZM327.153 185.139V192.453C329.549 192.416 331.542 192.288 333.717 191.923L333.955 193.916C331.414 194.373 329.11 194.464 326.184 194.464H324.758V183.183H332.602V185.139H327.153ZM339.733 187.845V189.838H337.283V198.505H334.869V181.629H337.283V187.845H339.733ZM342.789 197.039C342.395 197.039 342.058 196.9 341.776 196.623C341.495 196.346 341.356 196.009 341.361 195.61C341.356 195.221 341.495 194.888 341.776 194.61C342.058 194.333 342.395 194.195 342.789 194.195C343.17 194.195 343.501 194.333 343.783 194.61C344.068 194.888 344.213 195.221 344.218 195.61C344.213 195.874 344.144 196.115 344.01 196.331C343.88 196.548 343.707 196.721 343.49 196.851C343.278 196.976 343.045 197.039 342.789 197.039Z" fill="#242639"/>
<path d="M270.804 210.004V229H266.788V213.816H266.677L262.326 216.543V212.981L267.029 210.004H270.804ZM283.679 221.321V225.839H287.832V221.321H283.679ZM283.287 211.839V218.604H288.198V211.839H283.287ZM291.254 225.839H296.687V228.608H274.876V225.839H280.257V221.321H276.731V218.604H279.865V211.839H276.6V209.097H294.884V211.839H291.619V218.604H294.832V221.321H291.254V225.839Z" fill="#242639"/>
<g filter="url(#filter1_d_0_1)">
<rect x="3" y="33" width="372.21" height="101.868" rx="13.06" fill="#F26D7B"/>
</g>
<path d="M59.1323 73H56.5611L61.2425 59.7025H64.2162L68.9041 73H66.3329L62.7813 62.4296H62.6774L59.1323 73ZM59.2167 67.7862H66.229V69.7211H59.2167V67.7862ZM75.524 58.8116C78.1935 58.8116 80.1864 60.5486 80.1864 62.9804C80.1864 65.4304 78.1935 67.1674 75.524 67.1674C72.8728 67.1674 70.8433 65.4304 70.8433 62.9804C70.8433 60.5486 72.8728 58.8116 75.524 58.8116ZM75.524 60.896C74.2258 60.896 73.2385 61.6639 73.2385 62.9804C73.2385 64.3151 74.2258 65.083 75.524 65.083C76.8222 65.083 77.8095 64.3151 77.8095 62.9804C77.8095 61.6639 76.8222 60.896 75.524 60.896ZM81.7771 57.678H84.2089V74.6638H81.7771V57.678ZM70.441 71.2265L70.1485 69.2701C73.1288 69.2701 77.2793 69.2335 80.8446 68.7033L81.0275 70.4585C77.3524 71.1899 73.3665 71.2265 70.441 71.2265ZM92.1436 59.3784H99.4389V61.2982H92.1436V59.3784ZM94.3194 64.2237H96.7146V69.9649H94.3194V64.2237ZM98.4698 59.3784H100.865V60.7497C100.865 62.3953 100.865 64.4431 100.408 67.2588L98.031 67.0394C98.4698 64.3334 98.4698 62.377 98.4698 60.7497V59.3784ZM102.309 57.6963H104.741V74.6273H102.309V57.6963ZM104.028 64.4979H107.008V66.5092H104.028V64.4979ZM91.5036 71.2082L91.2842 69.2518C94.2645 69.2518 98.2139 69.1969 101.542 68.7764L101.67 70.5499C98.2504 71.135 94.4474 71.2082 91.5036 71.2082ZM119.879 57.6963H122.329V66.2532H119.879V57.6963ZM111.03 67.0028H122.329V71.5921H113.443V73.2925H111.066V69.8369H119.916V68.8495H111.03V67.0028ZM111.066 72.6343H122.75V74.5176H111.066V72.6343ZM112.218 58.0803H114.229V59.3601C114.229 62.4867 112.657 65.3207 109.347 66.3263L108.177 64.4065C111.011 63.5472 112.218 61.4262 112.218 59.3601V58.0803ZM112.712 58.0803H114.705V59.3601C114.705 61.3714 115.893 63.346 118.654 64.1323L117.484 66.0155C114.229 65.0647 112.712 62.4136 112.712 59.3601V58.0803ZM136.681 57.678H139.131V74.6638H136.681V57.678ZM130.007 58.8665C132.567 58.8665 134.45 61.2068 134.45 64.9002C134.45 68.6301 132.567 70.9705 130.007 70.9705C127.447 70.9705 125.564 68.6301 125.564 64.9002C125.564 61.2068 127.447 58.8665 130.007 58.8665ZM130.007 61.0788C128.745 61.0788 127.886 62.4136 127.886 64.9002C127.886 67.4234 128.745 68.7764 130.007 68.7764C131.268 68.7764 132.11 67.4234 132.11 64.9002C132.11 62.4136 131.268 61.0788 130.007 61.0788ZM147.23 68.5936H148.601C151.6 68.5936 153.556 68.5204 155.75 68.1182L155.988 70.0746C153.721 70.4951 151.691 70.5865 148.601 70.5865H147.23V68.5936ZM147.23 59.1956H154.891V61.1337H149.662V69.3432H147.23V59.1956ZM158.219 57.6963H160.65V74.6821H158.219V57.6963ZM154.068 63.5289H159.242V65.5036H154.068V63.5289ZM169.517 59.1773H180.177V61.1154H169.517V59.1773ZM167.799 70.6414H183.102V72.6343H167.799V70.6414ZM179.153 59.1773H181.548V61.1337C181.548 63.602 181.548 65.9424 180.762 69.6357L178.367 69.4163C179.153 65.9972 179.153 63.5289 179.153 61.1337V59.1773ZM179.665 63.8214V65.6133L169.316 66.1252L169.024 64.1688L179.665 63.8214ZM195.424 57.678H197.875V74.6638H195.424V57.678ZM197.326 63.9494H200.325V65.9424H197.326V63.9494ZM185.259 68.5753H186.685C189.537 68.5753 191.786 68.4839 194.273 68.045L194.51 70.0563C191.951 70.5134 189.628 70.5865 186.685 70.5865H185.259V68.5753ZM185.259 59.2504H193.157V61.2068H187.672V69.5443H185.259V59.2504ZM203.344 73.1428C202.951 73.1428 202.613 73.0043 202.332 72.7273C202.05 72.4503 201.912 72.1126 201.916 71.7144C201.912 71.3248 202.05 70.9915 202.332 70.7145C202.613 70.4375 202.951 70.299 203.344 70.299C203.725 70.299 204.056 70.4375 204.338 70.7145C204.624 70.9915 204.769 71.3248 204.773 71.7144C204.769 71.9785 204.699 72.2187 204.565 72.4351C204.435 72.6515 204.262 72.8247 204.046 72.9545C203.834 73.0801 203.6 73.1428 203.344 73.1428Z" fill="#242639"/>
<path d="M172.561 103.26C171.176 103.26 169.943 103.022 168.86 102.545C167.784 102.063 166.934 101.402 166.31 100.561C165.691 99.7134 165.373 98.7363 165.354 97.6294H169.398C169.423 98.0932 169.575 98.5013 169.853 98.8538C170.137 99.2001 170.515 99.4691 170.985 99.6608C171.454 99.8525 171.983 99.9483 172.571 99.9483C173.183 99.9483 173.724 99.8401 174.194 99.6237C174.664 99.4073 175.032 99.1074 175.298 98.724C175.564 98.3406 175.696 97.8984 175.696 97.3976C175.696 96.8905 175.554 96.4422 175.27 96.0526C174.992 95.6568 174.59 95.3477 174.064 95.125C173.545 94.9024 172.926 94.7911 172.209 94.7911H170.437V91.8415H172.209C172.815 91.8415 173.35 91.7364 173.814 91.5261C174.284 91.3159 174.648 91.0252 174.908 90.6542C175.168 90.277 175.298 89.838 175.298 89.3371C175.298 88.8609 175.183 88.4435 174.954 88.0849C174.732 87.72 174.416 87.4356 174.008 87.2315C173.606 87.0275 173.136 86.9254 172.598 86.9254C172.054 86.9254 171.556 87.0244 171.105 87.2223C170.654 87.414 170.292 87.6891 170.02 88.0478C169.748 88.4064 169.602 88.8269 169.584 89.3093H165.735C165.753 88.2147 166.065 87.2501 166.671 86.4153C167.277 85.5805 168.094 84.9281 169.12 84.4581C170.153 83.982 171.318 83.7439 172.617 83.7439C173.928 83.7439 175.075 83.982 176.058 84.4581C177.041 84.9343 177.805 85.5774 178.349 86.3875C178.9 87.1913 179.172 88.0942 179.166 89.0959C179.172 90.1595 178.841 91.0469 178.173 91.758C177.511 92.4691 176.649 92.9205 175.585 93.1122V93.2607C176.983 93.44 178.046 93.9254 178.776 94.7169C179.512 95.5022 179.877 96.4855 179.87 97.6665C179.877 98.7487 179.564 99.7103 178.934 100.551C178.309 101.392 177.446 102.054 176.346 102.536C175.245 103.019 173.984 103.26 172.561 103.26ZM191.117 95.3207V99.8395H195.27V95.3207H191.117ZM190.725 85.8392V92.6042H195.636V85.8392H190.725ZM198.692 99.8395H204.125V102.608H182.315V99.8395H187.696V95.3207H184.169V92.6042H187.304V85.8392H184.039V83.0966H202.323V85.8392H199.058V92.6042H202.27V95.3207H198.692V99.8395Z" fill="#242639"/>
<mask id="mask0_0_1" style="mask-type:luminance" maskUnits="userSpaceOnUse" x="25" y="4" width="40" height="40">
<path d="M45 20C45.9193 20 46.8295 19.8189 47.6788 19.4672C48.5281 19.1154 49.2997 18.5998 49.9497 17.9497C50.5998 17.2997 51.1154 16.5281 51.4672 15.6788C51.8189 14.8295 52 13.9193 52 13C52 12.0807 51.8189 11.1705 51.4672 10.3212C51.1154 9.47194 50.5998 8.70026 49.9497 8.05025C49.2997 7.40024 48.5281 6.88463 47.6788 6.53284C46.8295 6.18106 45.9193 6 45 6C43.1435 6 41.363 6.7375 40.0503 8.05025C38.7375 9.36301 38 11.1435 38 13C38 14.8565 38.7375 16.637 40.0503 17.9497C41.363 19.2625 43.1435 20 45 20ZM27 40.8V42H63V40.8C63 36.32 63 34.08 62.128 32.368C61.361 30.8628 60.1372 29.639 58.632 28.872C56.92 28 54.68 28 50.2 28H39.8C35.32 28 33.08 28 31.368 28.872C29.8628 29.639 28.639 30.8628 27.872 32.368C27 34.08 27 36.32 27 40.8Z" fill="white" stroke="white" stroke-width="4" stroke-linecap="round" stroke-linejoin="round"/>
</mask>
<g mask="url(#mask0_0_1)">
<path d="M21 0H69V48H21V0Z" fill="#242639"/>
</g>
<path d="M189 146.732C189 130.864 201.864 118 217.732 118H251.688C267.556 118 280.42 130.864 280.42 146.732C280.42 162.6 267.556 175.464 251.688 175.464H217.732C201.864 175.464 189 162.6 189 146.732Z" fill="white"/>
<path d="M221.159 135.794L226.257 152.49H226.447L231.544 135.794H237.711L230.019 158.59H222.684L214.993 135.794H221.159ZM248.725 142.629C248.651 141.812 248.321 141.178 247.735 140.725C247.156 140.265 246.329 140.035 245.253 140.035C244.54 140.035 243.947 140.128 243.472 140.313C242.997 140.499 242.641 140.755 242.403 141.081C242.166 141.4 242.043 141.768 242.036 142.183C242.021 142.525 242.088 142.825 242.236 143.085C242.392 143.345 242.615 143.575 242.904 143.775C243.201 143.968 243.557 144.139 243.973 144.287C244.388 144.435 244.856 144.565 245.375 144.677L247.334 145.122C248.462 145.367 249.456 145.693 250.317 146.101C251.185 146.509 251.913 146.996 252.499 147.559C253.092 148.123 253.541 148.773 253.846 149.507C254.15 150.242 254.306 151.066 254.313 151.978C254.306 153.418 253.942 154.653 253.222 155.685C252.502 156.716 251.467 157.507 250.117 158.056C248.774 158.605 247.152 158.879 245.253 158.879C243.346 158.879 241.683 158.594 240.266 158.022C238.849 157.451 237.747 156.583 236.96 155.418C236.174 154.253 235.769 152.78 235.747 150.999H241.023C241.068 151.733 241.264 152.346 241.613 152.835C241.962 153.325 242.44 153.696 243.049 153.948C243.665 154.201 244.377 154.327 245.186 154.327C245.928 154.327 246.559 154.227 247.078 154.026C247.605 153.826 248.009 153.548 248.291 153.192C248.573 152.835 248.718 152.427 248.725 151.967C248.718 151.537 248.584 151.17 248.325 150.865C248.065 150.554 247.664 150.286 247.123 150.064C246.588 149.834 245.906 149.622 245.075 149.429L242.693 148.873C240.719 148.42 239.164 147.689 238.029 146.68C236.894 145.664 236.33 144.291 236.337 142.562C236.33 141.152 236.708 139.916 237.472 138.855C238.237 137.794 239.294 136.967 240.645 136.373C241.995 135.779 243.535 135.483 245.264 135.483C247.03 135.483 248.562 135.783 249.861 136.384C251.167 136.978 252.18 137.813 252.899 138.889C253.619 139.965 253.987 141.211 254.001 142.629H248.725Z" fill="#242639"/>
<mask id="mask1_0_1" style="mask-type:luminance" maskUnits="userSpaceOnUse" x="66" y="4" width="40" height="40">
<path d="M86 20C86.9193 20 87.8295 19.8189 88.6788 19.4672C89.5281 19.1154 90.2997 18.5998 90.9497 17.9497C91.5998 17.2997 92.1154 16.5281 92.4672 15.6788C92.8189 14.8295 93 13.9193 93 13C93 12.0807 92.8189 11.1705 92.4672 10.3212C92.1154 9.47194 91.5998 8.70026 90.9497 8.05025C90.2997 7.40024 89.5281 6.88463 88.6788 6.53284C87.8295 6.18106 86.9193 6 86 6C84.1435 6 82.363 6.7375 81.0503 8.05025C79.7375 9.36301 79 11.1435 79 13C79 14.8565 79.7375 16.637 81.0503 17.9497C82.363 19.2625 84.1435 20 86 20ZM68 40.8V42H104V40.8C104 36.32 104 34.08 103.128 32.368C102.361 30.8628 101.137 29.639 99.632 28.872C97.92 28 95.68 28 91.2 28H80.8C76.32 28 74.08 28 72.368 28.872C70.8628 29.639 69.639 30.8628 68.872 32.368C68 34.08 68 36.32 68 40.8Z" fill="white" stroke="white" stroke-width="4" stroke-linecap="round" stroke-linejoin="round"/>
</mask>
<g mask="url(#mask1_0_1)">
<path d="M62 0H110V48H62V0Z" fill="#242639"/>
</g>
<mask id="mask2_0_1" style="mask-type:luminance" maskUnits="userSpaceOnUse" x="108" y="4" width="40" height="40">
<path d="M128 20C128.919 20 129.83 19.8189 130.679 19.4672C131.528 19.1154 132.3 18.5998 132.95 17.9497C133.6 17.2997 134.115 16.5281 134.467 15.6788C134.819 14.8295 135 13.9193 135 13C135 12.0807 134.819 11.1705 134.467 10.3212C134.115 9.47194 133.6 8.70026 132.95 8.05025C132.3 7.40024 131.528 6.88463 130.679 6.53284C129.83 6.18106 128.919 6 128 6C126.143 6 124.363 6.7375 123.05 8.05025C121.737 9.36301 121 11.1435 121 13C121 14.8565 121.737 16.637 123.05 17.9497C124.363 19.2625 126.143 20 128 20ZM110 40.8V42H146V40.8C146 36.32 146 34.08 145.128 32.368C144.361 30.8628 143.137 29.639 141.632 28.872C139.92 28 137.68 28 133.2 28H122.8C118.32 28 116.08 28 114.368 28.872C112.863 29.639 111.639 30.8628 110.872 32.368C110 34.08 110 36.32 110 40.8Z" fill="white" stroke="white" stroke-width="4" stroke-linecap="round" stroke-linejoin="round"/>
</mask>
<g mask="url(#mask2_0_1)">
<path d="M104 0H152V48H104V0Z" fill="#242639"/>
</g>
<mask id="mask3_0_1" style="mask-type:luminance" maskUnits="userSpaceOnUse" x="396" y="131" width="40" height="40">
<path d="M416 147C416.919 147 417.83 146.819 418.679 146.467C419.528 146.115 420.3 145.6 420.95 144.95C421.6 144.3 422.115 143.528 422.467 142.679C422.819 141.83 423 140.919 423 140C423 139.081 422.819 138.17 422.467 137.321C422.115 136.472 421.6 135.7 420.95 135.05C420.3 134.4 419.528 133.885 418.679 133.533C417.83 133.181 416.919 133 416 133C414.143 133 412.363 133.737 411.05 135.05C409.737 136.363 409 138.143 409 140C409 141.857 409.737 143.637 411.05 144.95C412.363 146.263 414.143 147 416 147ZM398 167.8V169H434V167.8C434 163.32 434 161.08 433.128 159.368C432.361 157.863 431.137 156.639 429.632 155.872C427.92 155 425.68 155 421.2 155H410.8C406.32 155 404.08 155 402.368 155.872C400.863 156.639 399.639 157.863 398.872 159.368C398 161.08 398 163.32 398 167.8Z" fill="white" stroke="white" stroke-width="4" stroke-linecap="round" stroke-linejoin="round"/>
</mask>
<g mask="url(#mask3_0_1)">
<path d="M392 127H440V175H392V127Z" fill="#242639"/>
</g>
<defs>
<filter id="filter0_d_0_1" x="84.347" y="159" width="373.516" height="104.48" filterUnits="userSpaceOnUse" color-interpolation-filters="sRGB">
<feFlood flood-opacity="0" result="BackgroundImageFix"/>
<feColorMatrix in="SourceAlpha" type="matrix" values="0 0 0 0 0 0 0 0 0 0 0 0 0 0 0 0 0 0 127 0" result="hardAlpha"/>
<feOffset dy="1.959"/>
<feGaussianBlur stdDeviation="0.3265"/>
<feComposite in2="hardAlpha" operator="out"/>
<feColorMatrix type="matrix" values="0 0 0 0 0 0 0 0 0 0 0 0 0 0 0 0 0 0 0.1 0"/>
<feBlend mode="normal" in2="BackgroundImageFix" result="effect1_dropShadow_0_1"/>
<feBlend mode="normal" in="SourceGraphic" in2="effect1_dropShadow_0_1" result="shape"/>
</filter>
<filter id="filter1_d_0_1" x="0.388" y="33" width="377.434" height="111.01" filterUnits="userSpaceOnUse" color-interpolation-filters="sRGB">
<feFlood flood-opacity="0" result="BackgroundImageFix"/>
<feColorMatrix in="SourceAlpha" type="matrix" values="0 0 0 0 0 0 0 0 0 0 0 0 0 0 0 0 0 0 127 0" result="hardAlpha"/>
<feMorphology radius="3.918" operator="erode" in="SourceAlpha" result="effect1_dropShadow_0_1"/>
<feOffset dy="6.53"/>
<feGaussianBlur stdDeviation="3.265"/>
<feComposite in2="hardAlpha" operator="out"/>
<feColorMatrix type="matrix" values="0 0 0 0 0 0 0 0 0 0 0 0 0 0 0 0 0 0 0.1 0"/>
<feBlend mode="normal" in2="BackgroundImageFix" result="effect1_dropShadow_0_1"/>
<feBlend mode="normal" in="SourceGraphic" in2="effect1_dropShadow_0_1" result="shape"/>
</filter>
</defs>
</svg>
