<svg width="60" height="60" viewBox="0 0 80 80" fill="none" xmlns="http://www.w3.org/2000/svg">
<path d="M2.19774 2.19774C2.89345 1.50104 3.71969 0.948325 4.62919 0.571216C5.5387 0.194107 6.51363 0 7.49821 0C8.4828 0 9.45772 0.194107 10.3672 0.571216C11.2767 0.948325 12.103 1.50104 12.7987 2.19774L40.0011 29.3902L67.2035 2.19774C67.8996 1.50167 68.7259 0.94952 69.6354 0.572811C70.5449 0.196102 71.5196 0.00221274 72.504 0.00221272C73.4884 0.0022127 74.4631 0.196102 75.3726 0.572811C76.282 0.94952 77.1084 1.50167 77.8045 2.19774C78.5005 2.89381 79.0527 3.72016 79.4294 4.62962C79.8061 5.53907 80 6.51382 80 7.49821C80 8.4826 79.8061 9.45735 79.4294 10.3668C79.0527 11.2763 78.5005 12.1026 77.8045 12.7987L50.612 40.0011L77.8045 67.2035C79.2102 68.6093 80 70.5159 80 72.504C80 74.4921 79.2102 76.3987 77.8045 77.8045C76.3987 79.2102 74.4921 80 72.504 80C70.5159 80 68.6093 79.2102 67.2035 77.8045L40.0011 50.612L12.7987 77.8045C11.3929 79.2102 9.48627 80 7.49821 80C5.51015 80 3.60351 79.2102 2.19774 77.8045C0.791968 76.3987 0.00221272 74.4921 0.00221272 72.504C0.00221272 70.5159 0.791968 68.6093 2.19774 67.2035L29.3902 40.0011L2.19774 12.7987C1.50104 12.103 0.948325 11.2767 0.571216 10.3672C0.194107 9.45772 0 8.4828 0 7.49821C0 6.51363 0.194107 5.5387 0.571216 4.62919C0.948325 3.71969 1.50104 2.89345 2.19774 2.19774Z" fill="white"/>
</svg>
